<svg xmlns="http://www.w3.org/2000/svg" width="42" height="42" viewBox="0 0 42 42"><g transform="translate(-1197.178 -6000.442)"><circle cx="21" cy="21" r="21" transform="translate(1197.178 6000.442)" fill="none"/><path d="M24.8,11.575a6.214,6.214,0,0,1-2,.525,2.969,2.969,0,0,0,1.47-1.89,6.889,6.889,0,0,1-2.2.84A3.667,3.667,0,0,0,19.55,10a3.476,3.476,0,0,0-3.36,3.465,1.557,1.557,0,0,0,.105.735,9.662,9.662,0,0,1-7.14-3.57,3.217,3.217,0,0,0-.42,1.785A3.446,3.446,0,0,0,10.31,15.25a4.4,4.4,0,0,1-1.575-.42h0a3.389,3.389,0,0,0,2.73,3.36,2.907,2.907,0,0,1-.945.105,1.332,1.332,0,0,1-.63-.105A3.4,3.4,0,0,0,13.145,20.6a6.677,6.677,0,0,1-4.3,1.47H8a10.245,10.245,0,0,0,5.25,1.575,9.719,9.719,0,0,0,9.765-9.765v-.42A6.1,6.1,0,0,0,24.8,11.575Z" transform="translate(1201.777 6005.142)"/></g></svg>